<?xml version="1.0" encoding="utf-8"?>
<!-- Generator: Adobe Illustrator 24.2.1, SVG Export Plug-In . SVG Version: 6.00 Build 0)  -->
<svg version="1.1" id="Capa_1" xmlns="http://www.w3.org/2000/svg" xmlns:xlink="http://www.w3.org/1999/xlink" x="0px" y="0px"
	 viewBox="0 0 24 24" style="enable-background:new 0 0 24 24;" xml:space="preserve">
<style type="text/css">
	.st0{fill:#60929C;}
</style>
<path class="st0" d="M22.7,1.3c-0.8-0.8-2-1.3-3.2-1.3H4.5C2,0,0,2,0,4.5v15.1C0,22,2,24,4.5,24h15.1c2.5,0,4.5-2,4.5-4.5V4.5
	C24,3.3,23.5,2.1,22.7,1.3z M7.8,10.2c0.3-0.3,0.7-0.3,1,0l2.5,2.5V5.2c0-0.4,0.3-0.7,0.7-0.7s0.7,0.3,0.7,0.7v7.5l2.5-2.5
	c0.3-0.3,0.7-0.3,1,0c0.3,0.3,0.3,0.7,0,1l-3.7,3.7c-0.3,0.3-0.7,0.3-1,0c0,0,0,0,0,0l-3.7-3.7C7.5,10.9,7.5,10.5,7.8,10.2
	C7.8,10.2,7.8,10.2,7.8,10.2z M18.8,19.5H5.2c-0.4,0-0.7-0.3-0.7-0.7c0-0.4,0.3-0.7,0.7-0.7l0,0h13.6c0.4,0,0.7,0.3,0.7,0.7
	C19.5,19.2,19.2,19.5,18.8,19.5z"/>
</svg>
