<?xml version="1.0" encoding="utf-8"?>
<!-- Generator: Adobe Illustrator 24.2.1, SVG Export Plug-In . SVG Version: 6.00 Build 0)  -->
<svg version="1.1" id="Layer_1" xmlns="http://www.w3.org/2000/svg" xmlns:xlink="http://www.w3.org/1999/xlink" x="0px" y="0px"
	 viewBox="0 0 24 24" style="enable-background:new 0 0 24 24;" xml:space="preserve">
<style type="text/css">
	.st0{fill:#FFFFFF;}
</style>
<desc>Created with Sketch.</desc>
<path class="st0" d="M22.7,1.3c-0.8-0.8-2-1.3-3.2-1.3h-15C1.9,0-0.1,2-0.1,4.5v15.1c0,2.4,2,4.4,4.5,4.4h15.1c2.5,0,4.5-2,4.5-4.5
	v-15C24,3.3,23.5,2.1,22.7,1.3z M7.8,10.2c0.3-0.3,0.7-0.3,1,0l2.5,2.5V5.2c0-0.4,0.3-0.7,0.7-0.7s0.7,0.3,0.7,0.7v7.5l2.5-2.5
	c0.3-0.3,0.7-0.3,1,0c0.3,0.3,0.3,0.7,0,1l-3.7,3.7c-0.3,0.3-0.7,0.3-1,0l0,0l-3.7-3.7C7.4,10.9,7.4,10.5,7.8,10.2L7.8,10.2z
	 M18.8,19.5H5.1c-0.4,0-0.7-0.3-0.7-0.7c0-0.4,0.3-0.7,0.7-0.7l0,0h13.6c0.4,0,0.7,0.3,0.7,0.7S19.2,19.5,18.8,19.5z"/>
</svg>
