<svg id="Capa_1" data-name="Capa 1" xmlns="http://www.w3.org/2000/svg" viewBox="0 0 24 24"><defs><style>.cls-1{fill:#a5a5a5;}</style></defs><path class="cls-1" d="M22.65,1.31A4.43,4.43,0,0,0,19.49,0H4.42A4.48,4.48,0,0,0,0,4.47V19.53A4.48,4.48,0,0,0,4.42,24H19.48A4.47,4.47,0,0,0,24,19.53V4.47A4.41,4.41,0,0,0,22.65,1.31ZM7.73,10.2a.69.69,0,0,1,1,0l2.53,2.52V5.22a.7.7,0,0,1,.7-.7.7.7,0,0,1,.71.7v7.5l2.52-2.52a.7.7,0,0,1,1,1l-3.73,3.73a.71.71,0,0,1-1,0L7.73,11.19A.69.69,0,0,1,7.73,10.2Zm11,9.28H5.17a.7.7,0,0,1,0-1.4H18.73a.7.7,0,1,1,0,1.4Z" transform="translate(0.05)"/></svg>