<svg id="Layer_1" data-name="Layer 1" xmlns="http://www.w3.org/2000/svg" viewBox="0 0 24 24"><defs><style>.cls-1{fill:#60929c;}</style></defs><path class="cls-1" d="M22.65,1.3A4.63,4.63,0,0,0,19.45,0h-15A4.48,4.48,0,0,0,0,4.5V19.6A4.46,4.46,0,0,0,4.45,24h15.1a4.48,4.48,0,0,0,4.5-4.5V4.5A5.22,5.22,0,0,0,22.65,1.3ZM7.75,10.2a.67.67,0,0,1,1,0l2.5,2.5V5.2a.7.7,0,0,1,1.4,0v7.5l2.5-2.5a.71.71,0,0,1,1,1l-3.7,3.7a.67.67,0,0,1-1,0h0l-3.7-3.7a.67.67,0,0,1,0-1Zm11,9.3H5.15a.7.7,0,0,1,0-1.4h13.6a.7.7,0,1,1,0,1.4Z"/></svg>