<?xml version="1.0" encoding="utf-8"?>
<!-- Generator: Adobe Illustrator 24.2.1, SVG Export Plug-In . SVG Version: 6.00 Build 0)  -->
<svg version="1.1" id="Layer_1" xmlns="http://www.w3.org/2000/svg" xmlns:xlink="http://www.w3.org/1999/xlink" x="0px" y="0px"
	 viewBox="0 0 24 24" style="enable-background:new 0 0 24 24;" xml:space="preserve">
<style type="text/css">
	.st0{fill:#A5A5A5;}
</style>
<desc>Created with Sketch.</desc>
<path class="st0" d="M22.6,1.3c-0.8-0.8-2-1.3-3.2-1.3H4.4C2,0,0,2,0,4.5v15.1C0,22,2,24,4.4,24h15.1c2.5,0,4.5-2,4.5-4.4
	c0,0,0,0,0-0.1V4.5C24,3.3,23.5,2.1,22.6,1.3z M7.7,10.2c0.3-0.3,0.7-0.3,1,0c0,0,0,0,0,0l2.5,2.5V5.2c0-0.4,0.3-0.7,0.7-0.7
	c0.4,0,0.7,0.3,0.7,0.7c0,0,0,0,0,0v7.5l2.5-2.5c0.3-0.3,0.7-0.3,1,0s0.3,0.7,0,1l0,0l-3.7,3.7c-0.3,0.3-0.7,0.3-1,0l-3.7-3.7
	C7.5,10.9,7.5,10.5,7.7,10.2C7.7,10.2,7.7,10.2,7.7,10.2z M18.7,19.5H5.2c-0.4,0-0.7-0.3-0.7-0.7c0-0.4,0.3-0.7,0.7-0.7h13.6
	c0.4,0,0.7,0.3,0.7,0.7S19.1,19.5,18.7,19.5C18.7,19.5,18.7,19.5,18.7,19.5z"/>
</svg>
